<svg width="19" height="19" viewBox="0 0 19 19" fill="none" xmlns="http://www.w3.org/2000/svg">
<path d="M9.5 1.78125C5.24393 1.78125 1.78125 5.24393 1.78125 9.5C1.78125 13.7561 5.24393 17.2188 9.5 17.2188C13.7561 17.2188 17.2188 13.7561 17.2188 9.5C17.2188 5.24393 13.7561 1.78125 9.5 1.78125ZM13.5171 6.91311L8.52959 12.8506C8.47488 12.9158 8.4068 12.9684 8.32997 13.005C8.25314 13.0415 8.16935 13.0611 8.08428 13.0625H8.07426C7.99104 13.0625 7.90875 13.0449 7.83274 13.0111C7.75672 12.9772 7.68868 12.9277 7.63303 12.8658L5.49553 10.4908C5.44124 10.4332 5.39901 10.3654 5.37133 10.2913C5.34364 10.2171 5.33104 10.1382 5.33429 10.0592C5.33753 9.98009 5.35655 9.90247 5.39022 9.83086C5.42389 9.75925 5.47154 9.69509 5.53036 9.64216C5.58918 9.58922 5.65799 9.54858 5.73274 9.52262C5.8075 9.49666 5.88668 9.4859 5.96565 9.49098C6.04462 9.49606 6.12178 9.51687 6.19259 9.5522C6.2634 9.58752 6.32643 9.63665 6.37799 9.69668L8.05867 11.564L12.6079 6.14939C12.71 6.03142 12.8543 5.95833 13.0098 5.94594C13.1653 5.93355 13.3194 5.98285 13.4389 6.08318C13.5583 6.18351 13.6335 6.32681 13.6481 6.48211C13.6628 6.63741 13.6157 6.79223 13.5171 6.91311Z" fill="#32B72F"/>
</svg>
